<svg xmlns="http://www.w3.org/2000/svg" width="1280" height="654" viewBox="0 0 1280 654" fill="none">
<rect x="2" y="2" width="1276" height="650" rx="28" fill="#F7FAFD" stroke="#C8D6E4" stroke-width="2"/>
<text x="40" y="56" fill="#111827" font-family="Inter,Segoe UI,Arial,sans-serif" font-size="34" font-weight="800">Teknik Yığın</text>
<text x="40" y="88" fill="#65768A" font-family="Inter,Segoe UI,Arial,sans-serif" font-size="17">Yeteneklerim ve projelerde kullandığım teknolojiler.</text>
<g>
<rect x="28" y="112" width="390" height="240" rx="22" fill="#FFFFFF" stroke="#C8D6E4" stroke-width="1.5"/>
<rect x="52" y="134" width="74" height="5" rx="2.5" fill="#54D6FF"/>
<text x="52" y="168" fill="#111827" font-family="Inter,Segoe UI,Arial,sans-serif" font-size="16.5" font-weight="800" letter-spacing="0.9">BACKEND &amp; API</text>
<rect x="52" y="196" width="58" height="34" rx="17" fill="#F5F8FB" stroke="#C8D6E4"/>
<text x="65" y="218" fill="#273548" font-family="Inter,Segoe UI,Arial,sans-serif" font-size="13" font-weight="700">C#</text>
<rect x="119" y="196" width="65" height="34" rx="17" fill="#F5F8FB" stroke="#C8D6E4"/>
<text x="132" y="218" fill="#273548" font-family="Inter,Segoe UI,Arial,sans-serif" font-size="13" font-weight="700">.NET 8</text>
<rect x="193" y="196" width="105" height="34" rx="17" fill="#F5F8FB" stroke="#C8D6E4"/>
<text x="206" y="218" fill="#273548" font-family="Inter,Segoe UI,Arial,sans-serif" font-size="13" font-weight="700">ASP.NET Core</text>
<rect x="52" y="240" width="58" height="34" rx="17" fill="#F5F8FB" stroke="#C8D6E4"/>
<text x="65" y="262" fill="#273548" font-family="Inter,Segoe UI,Arial,sans-serif" font-size="13" font-weight="700">MVC</text>
<rect x="119" y="240" width="72" height="34" rx="17" fill="#F5F8FB" stroke="#C8D6E4"/>
<text x="132" y="262" fill="#273548" font-family="Inter,Segoe UI,Arial,sans-serif" font-size="13" font-weight="700">Web API</text>
<rect x="200" y="240" width="72" height="34" rx="17" fill="#F5F8FB" stroke="#C8D6E4"/>
<text x="213" y="262" fill="#273548" font-family="Inter,Segoe UI,Arial,sans-serif" font-size="13" font-weight="700">EF Core</text>
<rect x="52" y="284" width="65" height="34" rx="17" fill="#F5F8FB" stroke="#C8D6E4"/>
<text x="65" y="306" fill="#273548" font-family="Inter,Segoe UI,Arial,sans-serif" font-size="13" font-weight="700">Dapper</text>
<rect x="126" y="284" width="58" height="34" rx="17" fill="#F5F8FB" stroke="#C8D6E4"/>
<text x="139" y="306" fill="#273548" font-family="Inter,Segoe UI,Arial,sans-serif" font-size="13" font-weight="700">LINQ</text>
<rect x="193" y="284" width="92" height="34" rx="17" fill="#F5F8FB" stroke="#C8D6E4"/>
<text x="206" y="306" fill="#273548" font-family="Inter,Segoe UI,Arial,sans-serif" font-size="13" font-weight="700">AutoMapper</text>
</g>
<g>
<rect x="445" y="112" width="390" height="240" rx="22" fill="#FFFFFF" stroke="#C8D6E4" stroke-width="1.5"/>
<rect x="469" y="134" width="74" height="5" rx="2.5" fill="#7C6CFF"/>
<text x="469" y="168" fill="#111827" font-family="Inter,Segoe UI,Arial,sans-serif" font-size="16.5" font-weight="800" letter-spacing="0.9">FRONTEND</text>
<rect x="469" y="196" width="72" height="34" rx="17" fill="#F5F8FB" stroke="#C8D6E4"/>
<text x="482" y="218" fill="#273548" font-family="Inter,Segoe UI,Arial,sans-serif" font-size="13" font-weight="700">Angular</text>
<rect x="550" y="196" width="92" height="34" rx="17" fill="#F5F8FB" stroke="#C8D6E4"/>
<text x="563" y="218" fill="#273548" font-family="Inter,Segoe UI,Arial,sans-serif" font-size="13" font-weight="700">TypeScript</text>
<rect x="469" y="240" width="92" height="34" rx="17" fill="#F5F8FB" stroke="#C8D6E4"/>
<text x="482" y="262" fill="#273548" font-family="Inter,Segoe UI,Arial,sans-serif" font-size="13" font-weight="700">JavaScript</text>
<rect x="570" y="240" width="59" height="34" rx="17" fill="#F5F8FB" stroke="#C8D6E4"/>
<text x="583" y="262" fill="#273548" font-family="Inter,Segoe UI,Arial,sans-serif" font-size="13" font-weight="700">HTML5</text>
<rect x="638" y="240" width="58" height="34" rx="17" fill="#F5F8FB" stroke="#C8D6E4"/>
<text x="651" y="262" fill="#273548" font-family="Inter,Segoe UI,Arial,sans-serif" font-size="13" font-weight="700">CSS3</text>
<rect x="469" y="284" width="85" height="34" rx="17" fill="#F5F8FB" stroke="#C8D6E4"/>
<text x="482" y="306" fill="#273548" font-family="Inter,Segoe UI,Arial,sans-serif" font-size="13" font-weight="700">Bootstrap</text>
<rect x="563" y="284" width="59" height="34" rx="17" fill="#F5F8FB" stroke="#C8D6E4"/>
<text x="576" y="306" fill="#273548" font-family="Inter,Segoe UI,Arial,sans-serif" font-size="13" font-weight="700">Razor</text>
</g>
<g>
<rect x="862" y="112" width="390" height="240" rx="22" fill="#FFFFFF" stroke="#C8D6E4" stroke-width="1.5"/>
<rect x="886" y="134" width="74" height="5" rx="2.5" fill="#6FE4B0"/>
<text x="886" y="168" fill="#111827" font-family="Inter,Segoe UI,Arial,sans-serif" font-size="16.5" font-weight="800" letter-spacing="0.9">VERİ &amp; ALTYAPI</text>
<rect x="886" y="196" width="92" height="34" rx="17" fill="#F5F8FB" stroke="#C8D6E4"/>
<text x="899" y="218" fill="#273548" font-family="Inter,Segoe UI,Arial,sans-serif" font-size="13" font-weight="700">SQL Server</text>
<rect x="987" y="196" width="92" height="34" rx="17" fill="#F5F8FB" stroke="#C8D6E4"/>
<text x="1000" y="218" fill="#273548" font-family="Inter,Segoe UI,Arial,sans-serif" font-size="13" font-weight="700">PostgreSQL</text>
<rect x="886" y="240" width="72" height="34" rx="17" fill="#F5F8FB" stroke="#C8D6E4"/>
<text x="899" y="262" fill="#273548" font-family="Inter,Segoe UI,Arial,sans-serif" font-size="13" font-weight="700">MongoDB</text>
<rect x="967" y="240" width="65" height="34" rx="17" fill="#F5F8FB" stroke="#C8D6E4"/>
<text x="980" y="262" fill="#273548" font-family="Inter,Segoe UI,Arial,sans-serif" font-size="13" font-weight="700">Docker</text>
<rect x="1041" y="240" width="58" height="34" rx="17" fill="#F5F8FB" stroke="#C8D6E4"/>
<text x="1054" y="262" fill="#273548" font-family="Inter,Segoe UI,Arial,sans-serif" font-size="13" font-weight="700">Git</text>
<rect x="886" y="284" width="65" height="34" rx="17" fill="#F5F8FB" stroke="#C8D6E4"/>
<text x="899" y="306" fill="#273548" font-family="Inter,Segoe UI,Arial,sans-serif" font-size="13" font-weight="700">GitHub</text>
<rect x="960" y="284" width="72" height="34" rx="17" fill="#F5F8FB" stroke="#C8D6E4"/>
<text x="973" y="306" fill="#273548" font-family="Inter,Segoe UI,Arial,sans-serif" font-size="13" font-weight="700">Postman</text>
<rect x="1041" y="284" width="72" height="34" rx="17" fill="#F5F8FB" stroke="#C8D6E4"/>
<text x="1054" y="306" fill="#273548" font-family="Inter,Segoe UI,Arial,sans-serif" font-size="13" font-weight="700">Swagger</text>
</g>
<g>
<rect x="28" y="382" width="390" height="240" rx="22" fill="#FFFFFF" stroke="#C8D6E4" stroke-width="1.5"/>
<rect x="52" y="404" width="74" height="5" rx="2.5" fill="#F4C65C"/>
<text x="52" y="438" fill="#111827" font-family="Inter,Segoe UI,Arial,sans-serif" font-size="16.5" font-weight="800" letter-spacing="0.9">MİMARİ</text>
<rect x="52" y="466" width="144" height="34" rx="17" fill="#F5F8FB" stroke="#C8D6E4"/>
<text x="65" y="488" fill="#273548" font-family="Inter,Segoe UI,Arial,sans-serif" font-size="13" font-weight="700">Onion Architecture</text>
<rect x="205" y="466" width="144" height="34" rx="17" fill="#F5F8FB" stroke="#C8D6E4"/>
<text x="218" y="488" fill="#273548" font-family="Inter,Segoe UI,Arial,sans-serif" font-size="13" font-weight="700">Clean Architecture</text>
<rect x="52" y="510" width="65" height="34" rx="17" fill="#F5F8FB" stroke="#C8D6E4"/>
<text x="65" y="532" fill="#273548" font-family="Inter,Segoe UI,Arial,sans-serif" font-size="13" font-weight="700">N-Tier</text>
<rect x="126" y="510" width="58" height="34" rx="17" fill="#F5F8FB" stroke="#C8D6E4"/>
<text x="139" y="532" fill="#273548" font-family="Inter,Segoe UI,Arial,sans-serif" font-size="13" font-weight="700">CQRS</text>
<rect x="193" y="510" width="72" height="34" rx="17" fill="#F5F8FB" stroke="#C8D6E4"/>
<text x="206" y="532" fill="#273548" font-family="Inter,Segoe UI,Arial,sans-serif" font-size="13" font-weight="700">MediatR</text>
</g>
<g>
<rect x="445" y="382" width="390" height="240" rx="22" fill="#FFFFFF" stroke="#C8D6E4" stroke-width="1.5"/>
<rect x="469" y="404" width="74" height="5" rx="2.5" fill="#54D6FF"/>
<text x="469" y="438" fill="#111827" font-family="Inter,Segoe UI,Arial,sans-serif" font-size="16.5" font-weight="800" letter-spacing="0.9">PATTERN &amp; ARAÇLAR</text>
<rect x="469" y="466" width="144" height="34" rx="17" fill="#F5F8FB" stroke="#C8D6E4"/>
<text x="482" y="488" fill="#273548" font-family="Inter,Segoe UI,Arial,sans-serif" font-size="13" font-weight="700">Repository Pattern</text>
<rect x="622" y="466" width="105" height="34" rx="17" fill="#F5F8FB" stroke="#C8D6E4"/>
<text x="635" y="488" fill="#273548" font-family="Inter,Segoe UI,Arial,sans-serif" font-size="13" font-weight="700">Unit of Work</text>
<rect x="469" y="510" width="157" height="34" rx="17" fill="#F5F8FB" stroke="#C8D6E4"/>
<text x="482" y="532" fill="#273548" font-family="Inter,Segoe UI,Arial,sans-serif" font-size="13" font-weight="700">Dependency Injection</text>
<rect x="635" y="510" width="78" height="34" rx="17" fill="#F5F8FB" stroke="#C8D6E4"/>
<text x="648" y="532" fill="#273548" font-family="Inter,Segoe UI,Arial,sans-serif" font-size="13" font-weight="700">Strategy</text>
<rect x="469" y="554" width="78" height="34" rx="17" fill="#F5F8FB" stroke="#C8D6E4"/>
<text x="482" y="576" fill="#273548" font-family="Inter,Segoe UI,Arial,sans-serif" font-size="13" font-weight="700">Observer</text>
<rect x="556" y="554" width="177" height="34" rx="17" fill="#F5F8FB" stroke="#C8D6E4"/>
<text x="569" y="576" fill="#273548" font-family="Inter,Segoe UI,Arial,sans-serif" font-size="13" font-weight="700">Chain of Responsibility</text>
</g>
<g>
<rect x="862" y="382" width="390" height="240" rx="22" fill="#FFFFFF" stroke="#C8D6E4" stroke-width="1.5"/>
<rect x="886" y="404" width="74" height="5" rx="2.5" fill="#7C6CFF"/>
<text x="886" y="438" fill="#111827" font-family="Inter,Segoe UI,Arial,sans-serif" font-size="16.5" font-weight="800" letter-spacing="0.9">GÜVENLİK &amp; ENTEGRASYON</text>
<rect x="886" y="466" width="78" height="34" rx="17" fill="#F5F8FB" stroke="#C8D6E4"/>
<text x="899" y="488" fill="#273548" font-family="Inter,Segoe UI,Arial,sans-serif" font-size="13" font-weight="700">Identity</text>
<rect x="973" y="466" width="144" height="34" rx="17" fill="#F5F8FB" stroke="#C8D6E4"/>
<text x="986" y="488" fill="#273548" font-family="Inter,Segoe UI,Arial,sans-serif" font-size="13" font-weight="700">JWT Authentication</text>
<rect x="1126" y="466" width="72" height="34" rx="17" fill="#F5F8FB" stroke="#C8D6E4"/>
<text x="1139" y="488" fill="#273548" font-family="Inter,Segoe UI,Arial,sans-serif" font-size="13" font-weight="700">SignalR</text>
<rect x="886" y="510" width="98" height="34" rx="17" fill="#F5F8FB" stroke="#C8D6E4"/>
<text x="899" y="532" fill="#273548" font-family="Inter,Segoe UI,Arial,sans-serif" font-size="13" font-weight="700">RESTful API</text>
<rect x="993" y="510" width="78" height="34" rx="17" fill="#F5F8FB" stroke="#C8D6E4"/>
<text x="1006" y="532" fill="#273548" font-family="Inter,Segoe UI,Arial,sans-serif" font-size="13" font-weight="700">RapidAPI</text>
<rect x="1080" y="510" width="92" height="34" rx="17" fill="#F5F8FB" stroke="#C8D6E4"/>
<text x="1093" y="532" fill="#273548" font-family="Inter,Segoe UI,Arial,sans-serif" font-size="13" font-weight="700">OpenAI API</text>
<rect x="886" y="554" width="92" height="34" rx="17" fill="#F5F8FB" stroke="#C8D6E4"/>
<text x="899" y="576" fill="#273548" font-family="Inter,Segoe UI,Arial,sans-serif" font-size="13" font-weight="700">Claude API</text>
<rect x="987" y="554" width="92" height="34" rx="17" fill="#F5F8FB" stroke="#C8D6E4"/>
<text x="1000" y="576" fill="#273548" font-family="Inter,Segoe UI,Arial,sans-serif" font-size="13" font-weight="700">Gemini API</text>
<rect x="1088" y="554" width="65" height="34" rx="17" fill="#F5F8FB" stroke="#C8D6E4"/>
<text x="1101" y="576" fill="#273548" font-family="Inter,Segoe UI,Arial,sans-serif" font-size="13" font-weight="700">ML.NET</text>
</g>
</svg>