<svg xmlns="http://www.w3.org/2000/svg" width="1280" height="642" viewBox="0 0 1280 642" fill="none">
  <rect x="2" y="2" width="1276" height="638" rx="28" fill="#07111D" stroke="#294158" stroke-width="2"/>

  <text x="40" y="55" fill="#F4F7FB" font-family="Inter,Segoe UI,Arial,sans-serif"
        font-size="34" font-weight="800">Teknik Yığın</text>
  <text x="40" y="86" fill="#8094AA" font-family="Inter,Segoe UI,Arial,sans-serif"
        font-size="17">Yeteneklerim ve projelerde kullandığım teknolojiler.</text>

  <g>
    <rect x="28" y="112" width="390" height="238" rx="22"
          fill="#081421" stroke="#294158"/>
    <rect x="52" y="134" width="82" height="5" rx="2.5" fill="#54D6FF"/>
    <text x="52" y="171" fill="#F4F7FB"
          font-family="Inter,Segoe UI,Arial,sans-serif"
          font-size="17" font-weight="800" letter-spacing="1">BACKEND &amp; API</text>

    <rect x="52" y="196" width="62" height="34" rx="17"
          fill="#0B1927" stroke="#294158"/>
    <text x="66" y="218" fill="#DDE6EF"
          font-family="Inter,Segoe UI,Arial,sans-serif"
          font-size="13.5" font-weight="700">C#</text>

    <rect x="123" y="196" width="70" height="34" rx="17"
          fill="#0B1927" stroke="#294158"/>
    <text x="137" y="218" fill="#DDE6EF"
          font-family="Inter,Segoe UI,Arial,sans-serif"
          font-size="13.5" font-weight="700">.NET 8</text>

    <rect x="202" y="196" width="112" height="34" rx="17"
          fill="#0B1927" stroke="#294158"/>
    <text x="216" y="218" fill="#DDE6EF"
          font-family="Inter,Segoe UI,Arial,sans-serif"
          font-size="13.5" font-weight="700">ASP.NET Core</text>

    <rect x="323" y="196" width="62" height="34" rx="17"
          fill="#0B1927" stroke="#294158"/>
    <text x="337" y="218" fill="#DDE6EF"
          font-family="Inter,Segoe UI,Arial,sans-serif"
          font-size="13.5" font-weight="700">MVC</text>

    <rect x="52" y="239" width="77" height="34" rx="17"
          fill="#0B1927" stroke="#294158"/>
    <text x="66" y="261" fill="#DDE6EF"
          font-family="Inter,Segoe UI,Arial,sans-serif"
          font-size="13.5" font-weight="700">Web API</text>

    <rect x="138" y="239" width="77" height="34" rx="17"
          fill="#0B1927" stroke="#294158"/>
    <text x="152" y="261" fill="#DDE6EF"
          font-family="Inter,Segoe UI,Arial,sans-serif"
          font-size="13.5" font-weight="700">EF Core</text>

    <rect x="224" y="239" width="70" height="34" rx="17"
          fill="#0B1927" stroke="#294158"/>
    <text x="238" y="261" fill="#DDE6EF"
          font-family="Inter,Segoe UI,Arial,sans-serif"
          font-size="13.5" font-weight="700">Dapper</text>

    <rect x="303" y="239" width="62" height="34" rx="17"
          fill="#0B1927" stroke="#294158"/>
    <text x="317" y="261" fill="#DDE6EF"
          font-family="Inter,Segoe UI,Arial,sans-serif"
          font-size="13.5" font-weight="700">LINQ</text>

    <rect x="52" y="282" width="98" height="34" rx="17"
          fill="#0B1927" stroke="#294158"/>
    <text x="66" y="304" fill="#DDE6EF"
          font-family="Inter,Segoe UI,Arial,sans-serif"
          font-size="13.5" font-weight="700">AutoMapper</text>
  </g>

  <g>
    <rect x="445" y="112" width="390" height="238" rx="22"
          fill="#081421" stroke="#294158"/>
    <rect x="469" y="134" width="82" height="5" rx="2.5" fill="#7C6CFF"/>
    <text x="469" y="171" fill="#F4F7FB"
          font-family="Inter,Segoe UI,Arial,sans-serif"
          font-size="17" font-weight="800" letter-spacing="1">FRONTEND</text>

    <rect x="469" y="196" width="77" height="34" rx="17"
          fill="#0B1927" stroke="#294158"/>
    <text x="483" y="218" fill="#DDE6EF"
          font-family="Inter,Segoe UI,Arial,sans-serif"
          font-size="13.5" font-weight="700">Angular</text>

    <rect x="555" y="196" width="98" height="34" rx="17"
          fill="#0B1927" stroke="#294158"/>
    <text x="569" y="218" fill="#DDE6EF"
          font-family="Inter,Segoe UI,Arial,sans-serif"
          font-size="13.5" font-weight="700">TypeScript</text>

    <rect x="662" y="196" width="98" height="34" rx="17"
          fill="#0B1927" stroke="#294158"/>
    <text x="676" y="218" fill="#DDE6EF"
          font-family="Inter,Segoe UI,Arial,sans-serif"
          font-size="13.5" font-weight="700">JavaScript</text>

    <rect x="469" y="239" width="63" height="34" rx="17"
          fill="#0B1927" stroke="#294158"/>
    <text x="483" y="261" fill="#DDE6EF"
          font-family="Inter,Segoe UI,Arial,sans-serif"
          font-size="13.5" font-weight="700">HTML5</text>

    <rect x="541" y="239" width="62" height="34" rx="17"
          fill="#0B1927" stroke="#294158"/>
    <text x="555" y="261" fill="#DDE6EF"
          font-family="Inter,Segoe UI,Arial,sans-serif"
          font-size="13.5" font-weight="700">CSS3</text>

    <rect x="612" y="239" width="91" height="34" rx="17"
          fill="#0B1927" stroke="#294158"/>
    <text x="626" y="261" fill="#DDE6EF"
          font-family="Inter,Segoe UI,Arial,sans-serif"
          font-size="13.5" font-weight="700">Bootstrap</text>

    <rect x="712" y="239" width="63" height="34" rx="17"
          fill="#0B1927" stroke="#294158"/>
    <text x="726" y="261" fill="#DDE6EF"
          font-family="Inter,Segoe UI,Arial,sans-serif"
          font-size="13.5" font-weight="700">Razor</text>
  </g>

  <g>
    <rect x="862" y="112" width="390" height="238" rx="22"
          fill="#081421" stroke="#294158"/>
    <rect x="886" y="134" width="82" height="5" rx="2.5" fill="#6FE4B0"/>
    <text x="886" y="171" fill="#F4F7FB"
          font-family="Inter,Segoe UI,Arial,sans-serif"
          font-size="17" font-weight="800" letter-spacing="1">VERİ &amp; ALTYAPI</text>

    <rect x="886" y="196" width="98" height="34" rx="17"
          fill="#0B1927" stroke="#294158"/>
    <text x="900" y="218" fill="#DDE6EF"
          font-family="Inter,Segoe UI,Arial,sans-serif"
          font-size="13.5" font-weight="700">SQL Server</text>

    <rect x="993" y="196" width="98" height="34" rx="17"
          fill="#0B1927" stroke="#294158"/>
    <text x="1007" y="218" fill="#DDE6EF"
          font-family="Inter,Segoe UI,Arial,sans-serif"
          font-size="13.5" font-weight="700">PostgreSQL</text>

    <rect x="1100" y="196" width="77" height="34" rx="17"
          fill="#0B1927" stroke="#294158"/>
    <text x="1114" y="218" fill="#DDE6EF"
          font-family="Inter,Segoe UI,Arial,sans-serif"
          font-size="13.5" font-weight="700">MongoDB</text>

    <rect x="886" y="239" width="70" height="34" rx="17"
          fill="#0B1927" stroke="#294158"/>
    <text x="900" y="261" fill="#DDE6EF"
          font-family="Inter,Segoe UI,Arial,sans-serif"
          font-size="13.5" font-weight="700">Docker</text>

    <rect x="965" y="239" width="62" height="34" rx="17"
          fill="#0B1927" stroke="#294158"/>
    <text x="979" y="261" fill="#DDE6EF"
          font-family="Inter,Segoe UI,Arial,sans-serif"
          font-size="13.5" font-weight="700">Git</text>

    <rect x="1036" y="239" width="70" height="34" rx="17"
          fill="#0B1927" stroke="#294158"/>
    <text x="1050" y="261" fill="#DDE6EF"
          font-family="Inter,Segoe UI,Arial,sans-serif"
          font-size="13.5" font-weight="700">GitHub</text>

    <rect x="1115" y="239" width="77" height="34" rx="17"
          fill="#0B1927" stroke="#294158"/>
    <text x="1129" y="261" fill="#DDE6EF"
          font-family="Inter,Segoe UI,Arial,sans-serif"
          font-size="13.5" font-weight="700">Postman</text>

    <rect x="886" y="282" width="77" height="34" rx="17"
          fill="#0B1927" stroke="#294158"/>
    <text x="900" y="304" fill="#DDE6EF"
          font-family="Inter,Segoe UI,Arial,sans-serif"
          font-size="13.5" font-weight="700">Swagger</text>
  </g>

  <g>
    <rect x="28" y="376" width="390" height="238" rx="22"
          fill="#081421" stroke="#294158"/>
    <rect x="52" y="398" width="82" height="5" rx="2.5" fill="#F4C65C"/>
    <text x="52" y="435" fill="#F4F7FB"
          font-family="Inter,Segoe UI,Arial,sans-serif"
          font-size="17" font-weight="800" letter-spacing="1">MİMARİ</text>

    <rect x="52" y="460" width="154" height="34" rx="17"
          fill="#0B1927" stroke="#294158"/>
    <text x="66" y="482" fill="#DDE6EF"
          font-family="Inter,Segoe UI,Arial,sans-serif"
          font-size="13.5" font-weight="700">Onion Architecture</text>

    <rect x="215" y="460" width="154" height="34" rx="17"
          fill="#0B1927" stroke="#294158"/>
    <text x="229" y="482" fill="#DDE6EF"
          font-family="Inter,Segoe UI,Arial,sans-serif"
          font-size="13.5" font-weight="700">Clean Architecture</text>

    <rect x="52" y="503" width="70" height="34" rx="17"
          fill="#0B1927" stroke="#294158"/>
    <text x="66" y="525" fill="#DDE6EF"
          font-family="Inter,Segoe UI,Arial,sans-serif"
          font-size="13.5" font-weight="700">N-Tier</text>

    <rect x="131" y="503" width="62" height="34" rx="17"
          fill="#0B1927" stroke="#294158"/>
    <text x="145" y="525" fill="#DDE6EF"
          font-family="Inter,Segoe UI,Arial,sans-serif"
          font-size="13.5" font-weight="700">CQRS</text>

    <rect x="202" y="503" width="77" height="34" rx="17"
          fill="#0B1927" stroke="#294158"/>
    <text x="216" y="525" fill="#DDE6EF"
          font-family="Inter,Segoe UI,Arial,sans-serif"
          font-size="13.5" font-weight="700">MediatR</text>
  </g>

  <g>
    <rect x="445" y="376" width="390" height="238" rx="22"
          fill="#081421" stroke="#294158"/>
    <rect x="469" y="398" width="82" height="5" rx="2.5" fill="#54D6FF"/>
    <text x="469" y="435" fill="#F4F7FB"
          font-family="Inter,Segoe UI,Arial,sans-serif"
          font-size="17" font-weight="800" letter-spacing="1">PATTERN &amp; ARAÇLAR</text>

    <rect x="469" y="460" width="154" height="34" rx="17"
          fill="#0B1927" stroke="#294158"/>
    <text x="483" y="482" fill="#DDE6EF"
          font-family="Inter,Segoe UI,Arial,sans-serif"
          font-size="13.5" font-weight="700">Repository Pattern</text>

    <rect x="632" y="460" width="112" height="34" rx="17"
          fill="#0B1927" stroke="#294158"/>
    <text x="646" y="482" fill="#DDE6EF"
          font-family="Inter,Segoe UI,Arial,sans-serif"
          font-size="13.5" font-weight="700">Unit of Work</text>

    <rect x="469" y="503" width="168" height="34" rx="17"
          fill="#0B1927" stroke="#294158"/>
    <text x="483" y="525" fill="#DDE6EF"
          font-family="Inter,Segoe UI,Arial,sans-serif"
          font-size="13.5" font-weight="700">Dependency Injection</text>

    <rect x="646" y="503" width="84" height="34" rx="17"
          fill="#0B1927" stroke="#294158"/>
    <text x="660" y="525" fill="#DDE6EF"
          font-family="Inter,Segoe UI,Arial,sans-serif"
          font-size="13.5" font-weight="700">Strategy</text>

    <rect x="469" y="546" width="84" height="34" rx="17"
          fill="#0B1927" stroke="#294158"/>
    <text x="483" y="568" fill="#DDE6EF"
          font-family="Inter,Segoe UI,Arial,sans-serif"
          font-size="13.5" font-weight="700">Observer</text>

    <rect x="562" y="546" width="189" height="34" rx="17"
          fill="#0B1927" stroke="#294158"/>
    <text x="576" y="568" fill="#DDE6EF"
          font-family="Inter,Segoe UI,Arial,sans-serif"
          font-size="13.5" font-weight="700">Chain of Responsibility</text>
  </g>

  <g>
    <rect x="862" y="376" width="390" height="238" rx="22"
          fill="#081421" stroke="#294158"/>
    <rect x="886" y="398" width="82" height="5" rx="2.5" fill="#7C6CFF"/>
    <text x="886" y="435" fill="#F4F7FB"
          font-family="Inter,Segoe UI,Arial,sans-serif"
          font-size="17" font-weight="800" letter-spacing="1">GÜVENLİK &amp; ENTEGRASYON</text>

    <rect x="886" y="460" width="84" height="34" rx="17"
          fill="#0B1927" stroke="#294158"/>
    <text x="900" y="482" fill="#DDE6EF"
          font-family="Inter,Segoe UI,Arial,sans-serif"
          font-size="13.5" font-weight="700">Identity</text>

    <rect x="979" y="460" width="154" height="34" rx="17"
          fill="#0B1927" stroke="#294158"/>
    <text x="993" y="482" fill="#DDE6EF"
          font-family="Inter,Segoe UI,Arial,sans-serif"
          font-size="13.5" font-weight="700">JWT Authentication</text>

    <rect x="1142" y="460" width="77" height="34" rx="17"
          fill="#0B1927" stroke="#294158"/>
    <text x="1156" y="482" fill="#DDE6EF"
          font-family="Inter,Segoe UI,Arial,sans-serif"
          font-size="13.5" font-weight="700">SignalR</text>

    <rect x="886" y="503" width="105" height="34" rx="17"
          fill="#0B1927" stroke="#294158"/>
    <text x="900" y="525" fill="#DDE6EF"
          font-family="Inter,Segoe UI,Arial,sans-serif"
          font-size="13.5" font-weight="700">RESTful API</text>

    <rect x="1000" y="503" width="84" height="34" rx="17"
          fill="#0B1927" stroke="#294158"/>
    <text x="1014" y="525" fill="#DDE6EF"
          font-family="Inter,Segoe UI,Arial,sans-serif"
          font-size="13.5" font-weight="700">RapidAPI</text>

    <rect x="1093" y="503" width="98" height="34" rx="17"
          fill="#0B1927" stroke="#294158"/>
    <text x="1107" y="525" fill="#DDE6EF"
          font-family="Inter,Segoe UI,Arial,sans-serif"
          font-size="13.5" font-weight="700">OpenAI API</text>

    <rect x="886" y="546" width="98" height="34" rx="17"
          fill="#0B1927" stroke="#294158"/>
    <text x="900" y="568" fill="#DDE6EF"
          font-family="Inter,Segoe UI,Arial,sans-serif"
          font-size="13.5" font-weight="700">Claude API</text>

    <rect x="993" y="546" width="98" height="34" rx="17"
          fill="#0B1927" stroke="#294158"/>
    <text x="1007" y="568" fill="#DDE6EF"
          font-family="Inter,Segoe UI,Arial,sans-serif"
          font-size="13.5" font-weight="700">Gemini API</text>

    <rect x="1100" y="546" width="70" height="34" rx="17"
          fill="#0B1927" stroke="#294158"/>
    <text x="1114" y="568" fill="#DDE6EF"
          font-family="Inter,Segoe UI,Arial,sans-serif"
          font-size="13.5" font-weight="700">ML.NET</text>
  </g>
</svg>